<?xml version="1.0" encoding="iso-8859-1"?>
<!-- Uploaded to: SVG Repo, www.svgrepo.com, Generator: SVG Repo Mixer Tools -->
<svg height="800px" width="800px" version="1.1" id="Layer_1" xmlns="http://www.w3.org/2000/svg" xmlns:xlink="http://www.w3.org/1999/xlink" 
	 viewBox="0 0 511.997 511.997" xml:space="preserve">
<path style="fill:#A0BF7C;" d="M261.903,460.797c-65.331,0-122.573-23.689-161.169-66.705l-8.653-9.643l0.094-0.085l-7.603-11.597
	c-22.613-34.534-32.119-74.914-27.477-116.77C73.291,110.171,201.308,87.566,314.255,67.624
	c55.228-9.754,107.358-18.961,138.871-42.334l14.669-10.871l5.222,17.502c23.083,77.38,42.317,236.672-32.026,342.835
	C401.022,431.844,340.768,460.797,261.903,460.797z"/>
<path style="fill:#573A32;" d="M14.547,511.298c1.374,0.478,2.773,0.7,4.147,0.7c5.316,0,10.291-3.328,12.109-8.653
	c14.012-40.866,35.712-73.532,61.039-100.096c41.054,45.338,101.359,70.349,170.061,70.349c83.268,0,147.046-30.78,189.568-91.503
	C529.713,270.393,509.72,93.608,478.735,8.403c-1.553-4.275-5.265-7.398-9.737-8.226c-4.463-0.725-9.054,0.802-11.998,4.275
	c-25.225,29.423-83.379,39.68-144.956,50.551C200.48,74.698,61.634,99.231,44.371,254.564c-5.18,46.686,6.153,91.529,31.829,128.777
	c-29.278,29.628-54.059,66.338-69.623,111.71C4.299,501.723,7.857,509.019,14.547,511.298z M69.826,257.414
	c15.138-136.311,132.847-157.09,246.673-177.186c56.491-9.975,110.302-19.473,144.256-44.655
	c25.438,85.282,37.248,235.46-30.242,331.844c-37.444,53.478-94.174,80.58-168.602,80.58c-61.67,0-115.507-22.178-151.646-62.455
	c32.546-28.51,69.248-48.196,104.149-61.133c0.179-0.051,0.367-0.026,0.546-0.094c2.253-0.794,4.275-1.749,6.494-2.569
	c55.39-19.311,104.533-22.221,121.156-18.432c6.886,1.476,13.739-2.799,15.275-9.702c1.553-6.903-2.799-13.747-9.702-15.3
	c-8.789-1.954-21.658-2.441-36.83-1.527c45.875-30.942,80.341-69.897,102.878-116.557c3.072-6.374,0.41-14.029-5.965-17.101
	c-6.323-3.072-14.003-0.401-17.092,5.948c-32.64,67.584-90.65,115.908-176.623,147.9c14.012-30.438,17.732-67.14,0.205-102.187
	c-3.166-6.298-10.863-8.9-17.178-5.726c-6.323,3.174-8.892,10.854-5.726,17.178c22.306,44.612-0.401,87.782-19.635,109.218
	c-26.496,12.911-52.762,29.508-76.945,50.287C74.579,334.146,65.474,296.548,69.826,257.414z"/>
</svg>